<svg xmlns="http://www.w3.org/2000/svg" viewBox="0 0 557.15 557.15"><defs><style>.cls-1,.cls-3{fill:none;}.cls-1,.cls-2{stroke:#010101;}.cls-1,.cls-2,.cls-3{stroke-miterlimit:10;}.cls-1{stroke-width:2px;}.cls-2{fill:#fff;stroke-width:7px;}.cls-3{stroke:#000;stroke-width:5px;}</style></defs><g id="Layer_2" data-name="Layer 2"><g id="Layer_1-2" data-name="Layer 1"><circle class="cls-1" cx="278.57" cy="278.57" r="277.57"/><circle class="cls-2" cx="278.57" cy="278.57" r="245.11"/><path class="cls-3" d="M357.36,123.58l-16.21,32.21.79.62c3-3.51,6.41-6.78,9-10.57,12.84-18.63,31.63-22,51.79-18.65,9.81,1.63,19.79,6,28.21,11.43,15.34,9.9,19.94,26.82,13.81,44.2-12.13,34.41-37.71,53.45-72.32,60.34-16.49,3.28-33.65,3.26-50.53,4.55-4.55.35-9.15.06-13.74.76,28.81,9.65,57.83,4.75,88.95.23-32.39,25.54-61.76,52-100.24,64.75l.14,1.8,23.36,4.49c-9.87,13.09-50,25-108.42,31.6,11.62,7.12,24.52,4.42,36.51,10l-42.33,6.85,5.9,4.08-.3,1L187.89,369C242,267.51,307.71,193.44,423.58,165.4c-16.49-1.12-24.27-1.29-39.22,4.4-53.08,20.2-98,52.13-135.93,94.31C206.3,311,175.93,364.57,156.37,424.34c-1.76,5.37-4.07,8.77-9.83,9.23H141c.28-2,.17-4.21.9-6.06,7.29-18.48,14.87-36.84,21.95-55.39a13.5,13.5,0,0,0-.36-9.37c-3.84-8.56-8.43-16.78-13.49-26.62l13.25,5.6c-1.62-6.33-2.89-11.32-4.33-17l8.74,2.7c-4-30.46,6.79-54.81,28.57-76.19C191.56,272.72,186.62,293,188,314c9.76-88.66,59.88-129.55,94-139.48l-12.59,44.88,2.11.64c6.2-13.19,12.49-26.34,18.58-39.58q18.21-39.58,59.32-53.83a70,70,0,0,0,6.58-3.07Z"/></g></g></svg>